<?xml version="1.0" standalone="no"?>
<!DOCTYPE svg PUBLIC "-//W3C//DTD SVG 20010904//EN"
 "http://www.w3.org/TR/2001/REC-SVG-20010904/DTD/svg10.dtd">
<svg version="1.0" xmlns="http://www.w3.org/2000/svg"
 width="280.000000pt" height="280.000000pt" viewBox="0 0 280.000000 280.000000"
 preserveAspectRatio="xMidYMid meet">
<metadata>
Created by potrace 1.11, written by Peter Selinger 2001-2013
</metadata>
<g transform="translate(0.000000,280.000000) scale(0.100000,-0.100000)"
fill="#000000" stroke="none">
<path d="M1225 1383 l0 -978 252 -3 253 -2 2 251 3 252 140 2 c221 5 346 30
495 102 79 39 109 60 175 127 140 142 191 285 188 529 -3 276 -143 497 -386
607 -64 28 -163 60 -207 66 -14 1 -50 7 -80 12 -30 6 -231 11 -445 11 l-390 2
0 -978z m778 495 c143 -34 209 -110 210 -245 0 -94 -28 -152 -96 -199 -59 -41
-131 -56 -274 -59 l-113 -2 0 259 0 259 115 -2 c64 -1 135 -6 158 -11z"/>
<path d="M711 1537 c-24 -12 -57 -42 -75 -66 l-31 -43 -2 -453 c-3 -484 -3
-483 47 -542 39 -47 74 -64 137 -68 80 -5 137 24 178 90 l30 48 0 451 c0 248
-3 463 -7 477 -9 32 -72 97 -108 112 -47 20 -123 17 -169 -6z"/>
<path d="M175 1030 c-41 -13 -91 -59 -115 -106 -17 -35 -19 -58 -17 -234 2
-206 3 -209 53 -266 40 -44 74 -58 143 -58 79 -1 123 21 167 86 29 41 29 42
32 212 5 238 -10 291 -101 351 -29 19 -121 27 -162 15z"/>
</g>
</svg>
