<?xml version="1.0" encoding="UTF-8"?>
<svg width="307px" height="566px" viewBox="0 0 307 566" version="1.1" xmlns="http://www.w3.org/2000/svg" xmlns:xlink="http://www.w3.org/1999/xlink">
    <!-- Generator: Sketch 55.2 (78181) - https://sketchapp.com -->
    <title>Group 20 Copy</title>
    <desc>Created with Sketch.</desc>
    <defs>
        <linearGradient x1="48.4608836%" y1="109.994419%" x2="51.9071191%" y2="6.0482825%" id="linearGradient-1">
            <stop stop-color="#46A5FF" offset="0%"></stop>
            <stop stop-color="#2B63FF" offset="100%"></stop>
        </linearGradient>
        <linearGradient x1="41.9176315%" y1="109.994419%" x2="60.0148624%" y2="6.0482825%" id="linearGradient-2">
            <stop stop-color="#46A5FF" offset="0%"></stop>
            <stop stop-color="#2B63FF" offset="100%"></stop>
        </linearGradient>
        <linearGradient x1="49.0569176%" y1="109.994419%" x2="51.1685734%" y2="6.0482825%" id="linearGradient-3">
            <stop stop-color="#46A5FF" offset="0%"></stop>
            <stop stop-color="#2B63FF" offset="100%"></stop>
        </linearGradient>
        <linearGradient x1="74.7273665%" y1="12.1129828%" x2="25.37053%" y2="77.4243079%" id="linearGradient-4">
            <stop stop-color="#FF3A64" offset="0%"></stop>
            <stop stop-color="#FF7B63" offset="100%"></stop>
        </linearGradient>
        <linearGradient x1="49.0532156%" y1="109.994419%" x2="51.1731605%" y2="6.0482825%" id="linearGradient-5">
            <stop stop-color="#46A5FF" offset="0%"></stop>
            <stop stop-color="#2B63FF" offset="100%"></stop>
        </linearGradient>
        <linearGradient x1="57.8484004%" y1="12.1129828%" x2="42.1826717%" y2="77.4243079%" id="linearGradient-6">
            <stop stop-color="#FF3A64" offset="0%"></stop>
            <stop stop-color="#FF7B63" offset="100%"></stop>
        </linearGradient>
        <linearGradient x1="46.3289363%" y1="109.994419%" x2="54.5488149%" y2="6.0482825%" id="linearGradient-7">
            <stop stop-color="#46A5FF" offset="0%"></stop>
            <stop stop-color="#2B63FF" offset="100%"></stop>
        </linearGradient>
        <linearGradient x1="53.8027476%" y1="12.1129828%" x2="46.2123076%" y2="77.4243079%" id="linearGradient-8">
            <stop stop-color="#FF3A64" offset="0%"></stop>
            <stop stop-color="#FF7B63" offset="100%"></stop>
        </linearGradient>
        <linearGradient x1="51.7351777%" y1="12.1129828%" x2="48.2716919%" y2="77.4243079%" id="linearGradient-9">
            <stop stop-color="#FF3A64" offset="0%"></stop>
            <stop stop-color="#FF7B63" offset="100%"></stop>
        </linearGradient>
        <linearGradient x1="44.6227045%" y1="109.994419%" x2="56.6630066%" y2="6.0482825%" id="linearGradient-10">
            <stop stop-color="#46A5FF" offset="0%"></stop>
            <stop stop-color="#2B63FF" offset="100%"></stop>
        </linearGradient>
        <linearGradient x1="55.6071126%" y1="12.1129828%" x2="44.4150862%" y2="77.4243079%" id="linearGradient-11">
            <stop stop-color="#FF3A64" offset="0%"></stop>
            <stop stop-color="#FF7B63" offset="100%"></stop>
        </linearGradient>
        <linearGradient x1="100%" y1="12.4613515%" x2="0.197951858%" y2="77.1721432%" id="linearGradient-12">
            <stop stop-color="#FF3A64" offset="0%"></stop>
            <stop stop-color="#FF7B63" offset="100%"></stop>
        </linearGradient>
        <linearGradient x1="55.6923906%" y1="12.1129828%" x2="44.3301457%" y2="77.4243079%" id="linearGradient-13">
            <stop stop-color="#FF3A64" offset="0%"></stop>
            <stop stop-color="#FF7B63" offset="100%"></stop>
        </linearGradient>
        <linearGradient x1="48.3796825%" y1="109.994419%" x2="52.0077354%" y2="6.0482825%" id="linearGradient-14">
            <stop stop-color="#46A5FF" offset="0%"></stop>
            <stop stop-color="#2B63FF" offset="100%"></stop>
        </linearGradient>
    </defs>
    <g id="Home" stroke="none" stroke-width="1" fill="none" fill-rule="evenodd">
        <g id="Group-20-Copy">
            <g id="Group-8">
                <g id="Group-5" transform="translate(5.000000, 0.000000)" opacity="0.515694754">
                    <g id="Group-4">
                        <rect id="Rectangle" fill="url(#linearGradient-1)" x="45.6833751" y="135.124579" width="24.0569846" height="342.087542" rx="5"></rect>
                        <rect id="Rectangle-Copy-14" fill="url(#linearGradient-2)" x="2.66453526e-13" y="280.736842" width="24.0569846" height="149.280702" rx="5"></rect>
                        <rect id="Rectangle-Copy-2" fill="url(#linearGradient-3)" x="91.3667502" y="27.3670034" width="24.0569846" height="437.016835" rx="5"></rect>
                        <rect id="Rectangle-Copy-8" fill="url(#linearGradient-4)" x="91.3143385" y="473.791246" width="24.0569846" height="34.2087542" rx="5"></rect>
                        <rect id="Rectangle-Copy-5" fill="url(#linearGradient-5)" x="182.7335" y="0" width="24.0569846" height="436.161616" rx="5"></rect>
                        <rect id="Rectangle-Copy-9" fill="url(#linearGradient-6)" x="182.628677" y="447.279461" width="24.0569846" height="60.7205387" rx="5"></rect>
                        <rect id="Rectangle-Copy-3" fill="url(#linearGradient-7)" x="137.050125" y="190.713805" width="24.0569846" height="221.501684" rx="5"></rect>
                        <rect id="Rectangle-Copy-10" fill="url(#linearGradient-8)" x="136.971508" y="420.767677" width="24.0569846" height="87.2323232" rx="5"></rect>
                        <rect id="Rectangle-Copy-11" fill="url(#linearGradient-9)" x="228.285846" y="378.861953" width="24.0569846" height="129.138047" rx="5"></rect>
                        <rect id="Rectangle-Copy-7" fill="url(#linearGradient-10)" x="273.943015" y="240.316498" width="24.0569846" height="183.016835" rx="5"></rect>
                        <rect id="Rectangle-Copy-12" fill="url(#linearGradient-11)" x="273.943015" y="436.161616" width="24.0569846" height="71.8383838" rx="5"></rect>
                        <rect id="Rectangle-Copy-13" fill="url(#linearGradient-12)" x="45.6571692" y="484.053872" width="24.0569846" height="23.9461279" rx="5"></rect>
                        <rect id="Rectangle-Copy-15" fill="url(#linearGradient-13)" x="0" y="436.701754" width="24.0569846" height="71.2982456" rx="5"></rect>
                    </g>
                    <rect id="Rectangle-Copy-6" fill="url(#linearGradient-14)" x="228.313846" y="37.703125" width="23.84" height="330.398438" rx="5"></rect>
                </g>
                <rect id="Rectangle" fill="#F2F5F8" x="0" y="530" width="33" height="36" rx="2"></rect>
                <rect id="Rectangle-Copy-19" fill="#F2F5F8" x="228" y="530" width="33" height="36" rx="2"></rect>
                <rect id="Rectangle-Copy-16" fill="#F2F5F8" x="46" y="530" width="33" height="36" rx="2"></rect>
                <rect id="Rectangle-Copy-20" fill="#F2F5F8" x="182" y="530" width="33" height="36" rx="2"></rect>
                <rect id="Rectangle-Copy-18" fill="#F2F5F8" x="137" y="530" width="33" height="36" rx="2"></rect>
                <rect id="Rectangle-Copy-21" fill="#F2F5F8" x="274" y="530" width="33" height="36" rx="2"></rect>
                <rect id="Rectangle-Copy-17" fill="#F2F5F8" x="92" y="530" width="33" height="36" rx="2"></rect>
            </g>
            <path d="M23.6249627,538.750039 C24.6601165,538.750039 25.4999583,539.58988 25.4999583,540.625034 L25.4999583,554.375001 C25.4999583,555.410155 24.6601165,556.249997 23.6249627,556.249997 L9.87499553,556.249997 C8.83984175,556.249997 8,555.410155 8,554.375001 L8,540.625034 C8,539.58988 8.83984175,538.750039 9.87499553,538.750039 L23.6249627,538.750039 Z M12.9609257,552.519537 L13.7148225,551.218767 C13.3124873,550.730487 12.7968559,550.582057 12.1679664,550.77344 L11.6093817,551.738289 C11.3945384,552.109382 11.5195076,552.589842 11.8945296,552.804685 C12.2656225,553.019528 12.7460824,552.894521 12.9609257,552.519537 Z M18.3867092,550.414058 C18.7304508,549.777349 18.2890532,548.851562 17.499994,548.851562 L15.0741866,548.851562 L18.4257717,543.046903 C18.6406149,542.675811 18.5156076,542.195351 18.1405856,541.980507 C17.7694927,541.765664 17.2890327,541.890672 17.0741895,542.265655 L16.726557,542.867232 L16.3788863,542.265655 C16.164043,541.894562 15.687474,541.765664 15.3124902,541.980507 C14.9413973,542.195351 14.812499,542.67192 15.0273423,543.046903 L15.8281216,544.429728 L13.2734249,548.851562 L11.2812422,548.851562 C10.8515557,548.851562 10.499994,549.203124 10.499994,549.63281 C10.499994,550.062497 10.8515557,550.414058 11.2812422,550.414058 L18.3867092,550.414058 Z M22.2187161,550.414058 C22.6484026,550.414058 22.9999642,550.066426 22.9999642,549.63281 C22.9999642,549.203124 22.6484026,548.851562 22.2187161,548.851562 L20.1874709,548.851562 C19.1640283,547.082042 18.3984203,545.753921 17.8866799,544.867196 C17.4218602,545.250039 16.9570023,546.382848 17.6093521,547.515658 C18.2538818,548.625008 19.2148018,550.296871 20.4999702,552.519537 C20.7148134,552.89063 21.1913824,553.019528 21.5663663,552.804685 C21.9374591,552.589842 22.0663575,552.113273 21.8515142,551.738289 L21.0859063,550.414058 L22.2187161,550.414058 Z" id="" fill="#8496B5" fill-rule="nonzero"></path>
            <path d="M204.781217,540.375035 C205.867556,540.375035 206.749962,541.257441 206.749962,542.34378 L206.749962,554.156252 C206.749962,555.242591 205.867556,556.124997 204.781217,556.124997 L192.968745,556.124997 C191.882406,556.124997 191,555.242591 191,554.156252 L191,542.34378 C191,541.257441 191.882406,540.375035 192.968745,540.375035 L204.781217,540.375035 Z M200.973811,543.261342 L200.973811,550.274998 C200.973811,550.971117 202.02496,550.971117 202.02496,550.274998 L202.02496,543.261342 C202.02496,542.565257 200.973811,542.565257 200.973811,543.261342 Z M198.351141,542.997671 L198.351141,550.608981 C198.351141,551.305101 199.402324,551.305101 199.402324,550.608981 L199.402324,542.997671 C199.402324,542.301586 198.351141,542.301586 198.351141,542.997671 Z M195.725002,543.261342 L195.725002,550.274998 C195.725002,550.971117 196.776151,550.971117 196.776151,550.274998 L196.776151,543.261342 C196.776151,542.565257 195.725002,542.565257 195.725002,543.261342 Z M193.09883,544.312525 L193.09883,549.033992 C193.09883,549.730077 194.149979,549.730077 194.149979,549.033992 L194.149979,544.312525 C194.149979,543.61644 193.09883,543.61644 193.09883,544.312525 Z M204.468314,552.321093 C204.992154,551.867599 204.310111,551.069547 203.786305,551.523041 C201.564428,553.417973 196.283965,553.467205 193.967194,551.523041 C193.439852,551.073049 192.757808,551.871101 193.285151,552.321093 C195.971096,554.62032 201.908951,554.535932 204.468314,552.321093 Z M204.651132,549.033992 L204.651132,544.312525 C204.651132,543.61644 203.599984,543.61644 203.599984,544.312525 L203.599984,549.033992 C203.599984,549.730077 204.651132,549.730077 204.651132,549.033992 Z" id="" fill="#8496B5" fill-rule="nonzero"></path>
            <path d="M105.843736,546.296893 C105.550226,546.296893 105.312487,546.059154 105.312487,545.765645 L105.312487,545.234396 C105.312487,544.940886 105.550226,544.703147 105.843736,544.703147 L111.156223,544.703147 C111.449733,544.703147 111.687472,544.940886 111.687472,545.234396 L111.687472,545.765645 C111.687472,546.059154 111.449733,546.296893 111.156223,546.296893 L105.843736,546.296893 Z M105.312487,548.953137 L105.312487,548.421888 C105.312487,548.128379 105.550226,547.89064 105.843736,547.89064 L111.156223,547.89064 C111.449733,547.89064 111.687472,548.128379 111.687472,548.421888 L111.687472,548.953137 C111.687472,549.246647 111.449733,549.484386 111.156223,549.484386 L105.843736,549.484386 C105.550226,549.484386 105.312487,549.246647 105.312487,548.953137 Z M108.49998,552.975018 C109.045171,552.975018 109.590363,552.806668 110.055886,552.470682 L116.999959,547.454363 L116.999959,554.531249 C116.999959,555.411454 116.286418,556.124995 115.406213,556.124995 L101.593746,556.124995 C100.713541,556.124995 100,555.411454 100,554.531249 L100,547.454363 L106.944073,552.470682 C107.409597,552.807025 107.954788,552.975018 108.49998,552.975018 Z M116.389367,544.535478 C116.774834,544.837613 116.999959,545.300153 116.999959,545.789542 L116.999959,546.143167 L113.812467,548.445785 L113.812467,542.312528 L103.187492,542.312528 L103.187492,548.445785 L100,546.143167 L100,545.789542 C100,545.361404 100.273601,544.799579 100.610592,544.535478 C100.904459,544.305035 101.183021,544.087886 101.593746,543.778099 L101.593746,542.312528 C101.593746,541.432323 102.307287,540.718782 103.187492,540.718782 L105.762382,540.718782 C105.863321,540.645728 105.957288,540.577344 106.062539,540.500984 C106.621025,540.093566 107.729663,539.113427 108.49998,539.125035 C109.270297,539.113427 110.379259,540.093566 110.937421,540.500984 C111.042672,540.577344 111.136639,540.645728 111.237577,540.718782 L113.812467,540.718782 C114.692672,540.718782 115.406213,541.432323 115.406213,542.312528 L115.406213,543.778099 C115.816939,544.088242 116.095501,544.305035 116.389367,544.535478 Z" id="" fill="#8496B5" fill-rule="nonzero"></path>
            <path d="M65.1655947,547.321885 L58.26873,540.406282 L67.0437335,545.443777 L65.1655947,547.321885 Z M56.4687465,540.000033 L64.4874652,547.996902 L56.4687465,555.996882 C56.0624975,555.784359 55.790617,555.396878 55.790617,554.893736 L55.790617,541.10315 C55.790617,540.600038 56.0624975,540.212527 56.4687465,540.000033 Z M69.7562209,547.050004 C70.3562256,547.496903 70.3562256,548.503126 69.7937269,548.950024 L67.9155881,550.015634 L65.8624619,548.000014 L67.9155881,545.984394 L69.7562209,547.050004 Z M58.26873,555.593746 L65.1655947,548.678144 L67.0437335,550.556252 L58.26873,555.593746 Z" id="" fill="#8496B5" fill-rule="nonzero"></path>
            <path d="M244.356242,546.612505 L239.256248,543.028163 C239.009362,543.175014 238.725,543.265651 238.418756,543.265651 C237.518734,543.265651 236.787504,542.53439 236.787504,541.631286 C236.787504,540.731294 237.518734,540.000033 238.418756,540.000033 C239.321861,540.000033 240.056234,540.731294 240.056234,541.631286 C240.056234,541.781279 240.03124,541.925017 239.993734,542.062528 C241.599993,543.284388 244.409343,545.309408 245.271859,545.962513 C245.681221,545.746907 246.131232,545.603139 246.606237,545.537526 L246.606237,543.625025 C246.059363,543.393763 245.724983,542.881283 245.724983,542.284391 C245.724983,541.46878 246.368719,540.787538 247.184361,540.787538 C247.999971,540.787538 248.653107,541.46878 248.653107,542.284391 C248.653107,542.881283 248.318727,543.393763 247.771853,543.625025 L247.771853,545.550008 C249.724973,545.846882 251.215601,547.534378 251.215601,549.571879 C251.215601,551.818761 249.399962,553.640626 247.153111,553.640626 C246.218726,553.640626 245.362465,553.328127 244.674967,552.799991 L243.112471,554.368743 C243.15312,554.49063 243.171858,554.61563 243.171858,554.746885 C243.171858,555.081235 243.040602,555.399991 242.803115,555.637508 C242.562484,555.878108 242.246872,555.999995 241.909349,555.999995 C241.574999,555.999995 241.256244,555.874996 241.018726,555.637508 C240.781239,555.399991 240.649983,555.084379 240.649983,554.746885 C240.649983,554.409362 240.781239,554.090637 241.018726,553.853119 C241.256244,553.615632 241.571856,553.484376 241.909349,553.484376 C242.062486,553.484376 242.209366,553.512513 242.346848,553.562501 L243.893719,552.006261 C243.384351,551.328131 243.081221,550.484383 243.081221,549.568767 C243.081221,548.403151 243.571851,547.353135 244.356242,546.612505 Z M247.153111,551.725012 C248.343721,551.725012 249.309355,550.759377 249.309355,549.568767 C249.309355,548.378126 248.343721,547.412522 247.153111,547.412522 C245.96247,547.412522 244.996866,548.378126 244.996866,549.568767 C244.996866,550.759377 245.96247,551.725012 247.153111,551.725012 Z" id="" fill="#8496B5" fill-rule="nonzero"></path>
            <path d="M291.037487,545.084402 C291.037487,543.856286 291.199993,542.921901 289.928115,542.925014 C289.928115,542.925014 288.74373,542.925014 288.234363,544.471886 L285.937493,544.259392 C285.937493,542.718777 287.396871,541.000031 290.146864,541.000031 C292.890601,541.000031 293.656225,542.781277 293.656225,543.571894 L293.656225,548.168776 C293.656225,549.028149 294.665591,549.818766 294.665591,549.818766 L292.890601,551.568762 C292.581215,551.278144 291.67811,550.424996 291.474986,550.106271 C290.062483,552.31876 285.740625,552.178135 285.740625,548.756269 C285.740625,545.568776 289.515609,545.140646 291.037487,545.084402 Z M291.037487,547.79689 L291.037487,546.528155 C289.984358,546.562518 288.406237,546.859392 288.406237,548.334395 C288.406237,549.921885 291.037487,550.296884 291.037487,547.79689 Z M295.287477,552.906253 C295.046846,553.218752 293.099982,554.999998 289.834365,554.999998 C286.568748,554.999998 284.068754,552.765628 283.30313,551.843755 C283.090637,551.603125 283.33438,551.490637 283.475005,551.584387 C285.765618,552.975009 289.343735,555.265622 295.115602,552.531254 C295.349977,552.415623 295.53122,552.593753 295.287477,552.906253 Z M296.531218,552.975009 C296.328093,553.468751 296.031219,553.8125 295.868713,553.943756 C295.696839,554.084381 295.571839,554.028137 295.665589,553.825013 C295.759338,553.621888 296.268706,552.371891 296.062469,552.106267 C295.859344,551.846868 294.906222,551.971868 294.562472,552.006261 C294.224979,552.037511 294.156223,552.068761 294.124973,551.996892 C294.053105,551.818761 294.803103,551.512518 295.296846,551.450018 C295.787476,551.393744 296.578093,551.424994 296.734342,551.628118 C296.849973,551.787511 296.734342,552.47501 296.531218,552.975009 Z" id="" fill="#8496B5" fill-rule="nonzero"></path>
            <path d="M155.062482,544.64065 C155.062482,545.078936 155.421069,545.437523 155.859355,545.437523 L160.37497,545.437523 L160.37497,556.328122 C160.37497,556.769716 160.019691,557.124995 159.578097,557.124995 L148.421873,557.124995 C147.980279,557.124995 147.625,556.769716 147.625,556.328122 L147.625,540.921909 C147.625,540.480315 147.980279,540.125035 148.421873,540.125035 L155.062482,540.125035 L155.062482,544.64065 Z M157.057972,548.176774 C157.227327,547.91115 157.038063,547.562518 156.722635,547.565779 L155.567175,547.565779 C155.421069,547.565779 155.284949,547.645525 155.215203,547.77503 C154.20251,549.660957 153.999985,550.049439 153.999985,550.049439 C153.448827,548.89064 153.651353,549.395332 152.784766,547.77503 C152.71502,547.645525 152.578901,547.565779 152.432795,547.565779 L151.277335,547.565779 C150.961906,547.565779 150.769335,547.914457 150.941997,548.180081 L152.944134,551.284566 L150.941997,554.389051 C150.772642,554.654675 150.961906,555.003307 151.277335,555.003307 L152.436134,555.003307 C152.582208,555.003307 152.71502,554.923639 152.784766,554.794135 C153.667954,553.173832 153.787472,553.00117 153.999985,552.509772 C153.999985,552.509772 154.561129,553.588871 155.211896,554.790827 C155.281609,554.9203 155.417761,555 155.563835,555 L156.722635,555 C157.038063,555 157.227327,554.651368 157.057972,554.385744 L155.062482,551.281259 L157.057972,548.176774 Z M160.37497,544.1725 L160.37497,544.375025 L156.12498,544.375025 L156.12498,540.125035 L156.327505,540.125035 C156.540018,540.125035 156.742543,540.208043 156.891957,540.357457 L160.142548,543.611355 C160.291962,543.760769 160.37497,543.963295 160.37497,544.1725 Z" id="" fill="#8496B5" fill-rule="nonzero"></path>
        </g>
    </g>
</svg>