<?xml version="1.0" encoding="UTF-8"?>
<svg width="151px" height="34px" viewBox="0 0 151 34" version="1.1" xmlns="http://www.w3.org/2000/svg" xmlns:xlink="http://www.w3.org/1999/xlink">
    <title>Pyoneer logo</title>
    <g id="pyoneer-logo/BR-white" stroke="none" stroke-width="1" fill="none" fill-rule="evenodd">
        <path d="M22.465,0.5 C29.36,0.5 33.21,3.93 33.21,9.6 C33.21,15.27 29.36,18.7 22.465,18.7 L20.61,18.7 L20.61,25 L14.31,25 L14.31,0.5 L22.465,0.5 Z M22.535,12.82 C25.265,12.82 26.7,11.7 26.7,9.6 C26.7,7.5 25.265,6.38 22.535,6.38 L20.61,6.38 L20.61,12.82 L22.535,12.82 Z M46.615,7.78 L53.055,7.78 L44.41,32.84 L37.935,32.84 L40.49,25.315 L34.435,7.78 L40.945,7.78 L43.71,17.65 L43.85,17.65 L46.615,7.78 Z M84.845,7.36 C88.24,7.36 90.445,9.74 90.445,14.36 L90.445,25 L84.495,25 L84.495,15.865 C84.495,13.73 83.725,12.89 82.29,12.89 C80.785,12.89 79.84,13.835 79.84,15.9 L79.84,25 L73.89,25 L73.89,7.78 L79.35,7.78 L79.525,9.775 L79.665,9.775 C80.68,8.305 82.71,7.36 84.845,7.36 Z M110.92,15.935 C110.92,16.46 110.885,17.09 110.78,17.825 L99.055,17.825 C99.44,19.645 100.63,20.52 102.345,20.52 C103.71,20.52 104.725,19.925 105.075,19.05 L110.745,19.05 C109.835,23.145 106.755,25.42 102.345,25.42 C96.85,25.42 93.245,21.815 93.245,16.495 C93.245,11.105 96.955,7.36 102.31,7.36 C107.28,7.36 110.92,10.58 110.92,15.935 Z M102.31,12.225 C100.84,12.225 99.755,12.89 99.23,14.325 L105.04,14.325 C104.655,12.785 103.605,12.225 102.31,12.225 Z M130.625,15.935 C130.625,16.46 130.59,17.09 130.485,17.825 L118.76,17.825 C119.145,19.645 120.335,20.52 122.05,20.52 C123.415,20.52 124.43,19.925 124.78,19.05 L130.45,19.05 C129.54,23.145 126.46,25.42 122.05,25.42 C116.555,25.42 112.95,21.815 112.95,16.495 C112.95,11.105 116.66,7.36 122.015,7.36 C126.985,7.36 130.625,10.58 130.625,15.935 Z M122.015,12.225 C120.545,12.225 119.46,12.89 118.935,14.325 L124.745,14.325 C124.36,12.785 123.31,12.225 122.015,12.225 Z M143.43,7.465 C143.955,7.465 144.515,7.535 144.935,7.71 L144.935,13.45 C144.41,13.38 143.92,13.345 143.465,13.345 C140.35,13.345 138.95,14.85 138.95,18 L138.95,25 L133,25 L133,7.78 L138.46,7.78 L138.705,10.335 L138.845,10.335 C139.685,8.48 141.435,7.465 143.43,7.465 Z M62.15,25.42 C56.795,25.42 53.05,21.745 53.05,16.39 C53.05,11.035 56.795,7.36 62.15,7.36 C67.505,7.36 71.25,11.035 71.25,16.39 C71.25,21.745 67.505,25.42 62.15,25.42 Z M62.15,20.03 C63.935,20.03 65.23,18.7 65.23,16.39 C65.23,14.08 63.935,12.75 62.15,12.75 C60.365,12.75 59.07,14.08 59.07,16.39 C59.07,18.7 60.365,20.03 62.15,20.03 Z" id="Pyoneer" fill="#FFFFFF"></path>
        <g id="pyoneer-logo/Favicon" transform="translate(-1.000000, 10.000000)" fill="#FF4F6A">
            <g id="Group-20">
                <path d="M7.5,3 L7.5,13 C7.5,14.3807119 8.61928813,15.5 10,15.5 C11.3807119,15.5 12.5,14.3807119 12.5,13 L12.5,3 C12.5,1.61928813 11.3807119,0.5 10,0.5 C8.61928813,0.5 7.5,1.61928813 7.5,3 Z" id="Line-2-Copy-6" fill-rule="nonzero"></path>
                <path d="M0.5,9.5 L0.5,13 C0.5,14.3807119 1.61928813,15.5 3,15.5 C4.38071187,15.5 5.5,14.3807119 5.5,13 L5.5,9.5 C5.5,8.11928813 4.38071187,7 3,7 C1.61928813,7 0.5,8.11928813 0.5,9.5 Z" id="Line-2-Copy-7" fill-rule="nonzero"></path>
            </g>
        </g>
    </g>
</svg>