<?xml version="1.0" encoding="UTF-8"?>
<svg width="84px" height="9px" viewBox="0 0 84 9" version="1.1" xmlns="http://www.w3.org/2000/svg" xmlns:xlink="http://www.w3.org/1999/xlink">
    <!-- Generator: Sketch 55.2 (78181) - https://sketchapp.com -->
    <title>Path 2</title>
    <desc>Created with Sketch.</desc>
    <g id="Home" stroke="none" stroke-width="1" fill="none" fill-rule="evenodd">
        <g transform="translate(-704.000000, -1630.000000)" fill="#3781FF" id="Path-2">
            <path d="M704.111111,1631.20408 C704.111111,1630.20408 706.111111,1632.20408 716.111111,1632.20408 C744.808694,1632.20408 766.111111,1629.20408 776.111111,1630.20408 C782.777778,1630.87075 786.777778,1631.87075 788.111111,1633.20408 C786.111111,1632.53741 785.444444,1632.53741 786.111111,1633.20408 C787.111111,1634.20408 787.111111,1635.20408 786.111111,1635.20408 C785.111111,1635.20408 780.111111,1634.20408 779.111111,1635.20408 C778.111111,1636.20408 773.111111,1633.20408 751.111111,1636.20408 C729.111111,1639.20408 711.111111,1638.20408 707.111111,1636.20408 C703.111111,1634.20408 704.111111,1632.20408 704.111111,1631.20408 Z"></path>
        </g>
    </g>
</svg>