<?xml version="1.0" encoding="UTF-8"?>
<svg width="151px" height="34px" viewBox="0 0 151 34" version="1.1" xmlns="http://www.w3.org/2000/svg" xmlns:xlink="http://www.w3.org/1999/xlink">
    <!-- Generator: Sketch 55.2 (78181) - https://sketchapp.com -->
    <title>pyoneer-logo</title>
    <desc>Created with Sketch.</desc>
    <g id="pyoneer-logo" stroke="none" stroke-width="1" fill="none" fill-rule="evenodd">
        <path d="M7.5,13 L7.5,23 C7.5,24.3807119 8.61928813,25.5 10,25.5 C11.3807119,25.5 12.5,24.3807119 12.5,23 L12.5,13 C12.5,11.6192881 11.3807119,10.5 10,10.5 C8.61928813,10.5 7.5,11.6192881 7.5,13 Z" id="Line-2-Copy-8" fill="#FF4F6A" fill-rule="nonzero"></path>
        <path d="M0.5,19.5 L0.5,23 C0.5,24.3807119 1.61928813,25.5 3,25.5 C4.38071187,25.5 5.5,24.3807119 5.5,23 L5.5,19.5 C5.5,18.1192881 4.38071187,17 3,17 C1.61928813,17 0.5,18.1192881 0.5,19.5 Z" id="Line-2-Copy-9" fill="#FF4F6A" fill-rule="nonzero"></path>
        <path d="M22.352,25 L16.16,25 L16.16,0.988 L28.184,0.988 C33.584,0.988 36.536,4.624 36.536,8.98 C36.536,13.3 33.584,16.936 28.184,16.936 L22.352,16.936 L22.352,25 Z M27.248,11.536 C28.904,11.536 30.236,10.6 30.236,8.98 C30.236,7.324 28.904,6.388 27.248,6.388 L22.352,6.388 L22.352,11.536 L27.248,11.536 Z M38.804,31.768 L39.596,26.836 C39.992,27.052 40.532,27.16 40.964,27.16 C42.224,27.16 43.016,26.908 43.34,26.188 L43.736,25.252 L36.788,7.612 L42.62,7.612 L46.58,18.628 L50.504,7.612 L56.372,7.612 L48.524,27.484 C47.12,31.156 44.528,31.984 41.18,32.056 C40.676,32.056 39.38,31.948 38.804,31.768 Z M66.344,25.432 C60.44,25.432 56.912,21.184 56.912,16.288 C56.912,11.392 60.44,7.18 66.344,7.18 C72.32,7.18 75.848,11.392 75.848,16.288 C75.848,21.184 72.32,25.432 66.344,25.432 Z M66.344,20.536 C68.792,20.536 70.16,18.628 70.16,16.288 C70.16,13.984 68.792,12.076 66.344,12.076 C63.968,12.076 62.6,13.984 62.6,16.288 C62.6,18.628 63.968,20.536 66.344,20.536 Z M96.08,25 L90.536,25 L90.536,14.956 C90.536,12.832 89.42,12.076 87.692,12.076 C86.036,12.076 84.956,12.976 84.308,13.768 L84.308,25 L78.764,25 L78.764,7.612 L84.308,7.612 L84.308,9.736 C85.352,8.512 87.404,7.18 90.356,7.18 C94.28,7.18 96.08,9.484 96.08,12.688 L96.08,25 Z M108.464,25.432 C103.1,25.432 98.996,21.94 98.996,16.288 C98.996,11.248 102.776,7.18 108.212,7.18 C113.36,7.18 117.104,10.96 117.104,16.864 L117.104,18.124 L104.72,18.124 C105.116,19.672 106.556,20.968 109.076,20.968 C110.3,20.968 112.316,20.428 113.324,19.492 L115.736,23.128 C114.008,24.676 111.128,25.432 108.464,25.432 Z M111.812,14.344 C111.668,13.12 110.768,11.644 108.212,11.644 C105.8,11.644 104.864,13.084 104.648,14.344 L111.812,14.344 Z M128.192,25.432 C122.828,25.432 118.724,21.94 118.724,16.288 C118.724,11.248 122.504,7.18 127.94,7.18 C133.088,7.18 136.832,10.96 136.832,16.864 L136.832,18.124 L124.448,18.124 C124.844,19.672 126.284,20.968 128.804,20.968 C130.028,20.968 132.044,20.428 133.052,19.492 L135.464,23.128 C133.736,24.676 130.856,25.432 128.192,25.432 Z M131.54,14.344 C131.396,13.12 130.496,11.644 127.94,11.644 C125.528,11.644 124.592,13.084 124.376,14.344 L131.54,14.344 Z M145.112,25 L139.568,25 L139.568,7.612 L145.112,7.612 L145.112,9.736 C146.264,8.332 148.496,7.144 150.548,7.144 L150.548,12.472 C150.224,12.364 149.756,12.328 149.18,12.328 C147.74,12.328 145.832,12.94 145.112,13.912 L145.112,25 Z" id="Pyoneer" fill="#3781FF" fill-rule="nonzero"></path>
    </g>
</svg>